<svg width="159" height="69" viewBox="0 0 159 69" fill="none" xmlns="http://www.w3.org/2000/svg">
<path d="M15.4425 60L12.9675 57.525C12.8895 57.4572 12.8264 57.374 12.782 57.2806C12.7377 57.1873 12.7132 57.0858 12.7099 56.9825C12.7067 56.8792 12.7248 56.7763 12.7632 56.6804C12.8016 56.5844 12.8594 56.4975 12.933 56.4249C13.0066 56.3523 13.0944 56.2958 13.1909 56.2588C13.2874 56.2217 13.3905 56.205 13.4937 56.2098C13.5969 56.2145 13.6981 56.2404 13.7908 56.2861C13.8835 56.3317 13.9658 56.3961 14.0325 56.475L17.0325 59.475C17.1699 59.6152 17.2469 59.8037 17.2469 60C17.2469 60.1963 17.1699 60.3848 17.0325 60.525L14.0325 63.525C13.8899 63.649 13.7058 63.7145 13.5169 63.7086C13.3281 63.7027 13.1484 63.6257 13.0139 63.4931C12.8793 63.3604 12.7998 63.1819 12.7912 62.9931C12.7826 62.8044 12.8456 62.6193 12.9675 62.475L15.4425 60ZM2.55 60L5.025 62.475C5.14692 62.6193 5.20988 62.8044 5.20128 62.9931C5.19267 63.1819 5.11315 63.3604 4.97861 63.4931C4.84406 63.6257 4.66441 63.7027 4.47556 63.7086C4.28672 63.7145 4.10259 63.649 3.96 63.525L0.959998 60.525C0.822578 60.3848 0.745605 60.1963 0.745605 60C0.745605 59.8037 0.822578 59.6152 0.959998 59.475L3.96 56.475C4.10259 56.351 4.28672 56.2855 4.47556 56.2914C4.66441 56.2973 4.84406 56.3743 4.97861 56.5069C5.11315 56.6396 5.19267 56.8181 5.20128 57.0069C5.20988 57.1956 5.14692 57.3807 5.025 57.525L2.55 60ZM8.22 66.18C8.16618 66.3663 8.04232 66.5244 7.8744 66.6214C7.70648 66.7183 7.50755 66.7464 7.31934 66.6998C7.13113 66.6533 6.96827 66.5356 6.86492 66.3716C6.76157 66.2076 6.72576 66.0099 6.765 65.82L9.765 53.82C9.78543 53.7212 9.8256 53.6274 9.88311 53.5445C9.94062 53.4615 10.0143 53.3911 10.0997 53.3372C10.1851 53.2834 10.2805 53.2474 10.3801 53.2314C10.4798 53.2153 10.5816 53.2195 10.6796 53.2438C10.7776 53.268 10.8697 53.3118 10.9503 53.3724C11.031 53.4331 11.0986 53.5095 11.149 53.5969C11.1995 53.6843 11.2318 53.781 11.244 53.8812C11.2562 53.9814 11.248 54.083 11.22 54.18L8.22 66.18Z" fill="#242439"/>
<path d="M50.2472 3.81818V14H49.0739V3.81818H50.2472ZM55.5978 14.1591C54.862 14.1591 54.2273 13.9967 53.6937 13.6719C53.1634 13.3438 52.7541 12.8864 52.4657 12.2997C52.1807 11.7098 52.0382 11.0237 52.0382 10.2415C52.0382 9.45928 52.1807 8.76989 52.4657 8.1733C52.7541 7.57339 53.1551 7.10606 53.6689 6.77131C54.1859 6.43324 54.7891 6.2642 55.4785 6.2642C55.8762 6.2642 56.269 6.33049 56.6568 6.46307C57.0446 6.59564 57.3976 6.81108 57.7157 7.10938C58.0339 7.40436 58.2875 7.79545 58.4764 8.28267C58.6653 8.76989 58.7598 9.36979 58.7598 10.0824V10.5795H52.8734V9.56534H57.5666C57.5666 9.13447 57.4804 8.75 57.3081 8.41193C57.139 8.07386 56.8971 7.80705 56.5822 7.61151C56.2707 7.41596 55.9028 7.31818 55.4785 7.31818C55.0112 7.31818 54.6068 7.43419 54.2654 7.66619C53.9274 7.89489 53.6672 8.19318 53.4849 8.56108C53.3026 8.92898 53.2115 9.32339 53.2115 9.74432V10.4205C53.2115 10.9972 53.3109 11.486 53.5098 11.8871C53.7119 12.2848 53.992 12.5881 54.35 12.7969C54.7079 13.0024 55.1239 13.1051 55.5978 13.1051C55.9061 13.1051 56.1845 13.062 56.4331 12.9759C56.685 12.8864 56.902 12.7538 57.0843 12.5781C57.2666 12.3991 57.4075 12.1771 57.5069 11.9119L58.6404 12.2301C58.5211 12.6146 58.3206 12.9527 58.0389 13.2443C57.7572 13.5327 57.4092 13.758 56.9949 13.9205C56.5806 14.0795 56.1149 14.1591 55.5978 14.1591ZM63.8656 6.36364V7.35795H59.9082V6.36364H63.8656ZM61.0616 4.53409H62.2349V11.8125C62.2349 12.1439 62.283 12.3925 62.3791 12.5582C62.4785 12.7206 62.6045 12.83 62.7569 12.8864C62.9127 12.9394 63.0768 12.9659 63.2491 12.9659C63.3784 12.9659 63.4844 12.9593 63.5673 12.946C63.6502 12.9295 63.7164 12.9162 63.7662 12.9062L64.0048 13.9602C63.9252 13.9901 63.8142 14.0199 63.6717 14.0497C63.5292 14.0829 63.3485 14.0994 63.1298 14.0994C62.7984 14.0994 62.4735 14.0282 62.1554 13.8857C61.8405 13.7431 61.5787 13.526 61.3699 13.2344C61.1644 12.9427 61.0616 12.5748 61.0616 12.1307V4.53409ZM67.0611 3.81818V4.71307C67.0611 4.98485 67.0114 5.27486 66.9119 5.5831C66.8158 5.88802 66.6733 6.18466 66.4844 6.47301C66.2988 6.75805 66.0734 7.00663 65.8082 7.21875L65.1719 6.7017C65.3807 6.40341 65.5613 6.09351 65.7138 5.77202C65.8696 5.44721 65.9474 5.10085 65.9474 4.73295V3.81818H67.0611ZM72.94 8.07386L71.886 8.37216C71.8197 8.1965 71.7219 8.0258 71.5927 7.86009C71.4667 7.69105 71.2944 7.55185 71.0756 7.44247C70.8569 7.3331 70.5768 7.27841 70.2354 7.27841C69.7681 7.27841 69.3787 7.38613 69.0671 7.60156C68.7589 7.81368 68.6048 8.08381 68.6048 8.41193C68.6048 8.7036 68.7108 8.93395 68.9229 9.10298C69.1351 9.27202 69.4665 9.41288 69.9173 9.52557L71.0508 9.80398C71.7335 9.9697 72.2423 10.2232 72.5771 10.5646C72.9118 10.9027 73.0792 11.3385 73.0792 11.8722C73.0792 12.3097 72.9532 12.7008 72.7013 13.0455C72.4528 13.3902 72.1048 13.6619 71.6573 13.8608C71.2099 14.0597 70.6895 14.1591 70.0962 14.1591C69.3174 14.1591 68.6727 13.9901 68.1623 13.652C67.6519 13.3139 67.3287 12.8201 67.1928 12.1705L68.3065 11.892C68.4125 12.303 68.613 12.6113 68.908 12.8168C69.2063 13.0223 69.5958 13.125 70.0763 13.125C70.6232 13.125 71.0574 13.009 71.3789 12.777C71.7037 12.5417 71.8661 12.2599 71.8661 11.9318C71.8661 11.6667 71.7733 11.4446 71.5877 11.2656C71.4021 11.0833 71.1171 10.9474 70.7326 10.858L69.4599 10.5597C68.7605 10.3939 68.2468 10.1371 67.9187 9.78906C67.5939 9.43774 67.4315 8.99858 67.4315 8.47159C67.4315 8.04072 67.5524 7.65956 67.7944 7.32812C68.0397 6.99669 68.3728 6.73651 68.7937 6.54758C69.2179 6.35866 69.6985 6.2642 70.2354 6.2642C70.9911 6.2642 71.5844 6.42992 72.0153 6.76136C72.4495 7.0928 72.7577 7.5303 72.94 8.07386ZM84.883 3.81818H87.0357V10.4304C87.0357 11.1728 86.8584 11.8224 86.5037 12.3793C86.1524 12.9361 85.6602 13.3703 85.0272 13.6818C84.3941 13.9901 83.6567 14.1442 82.8148 14.1442C81.9696 14.1442 81.2305 13.9901 80.5975 13.6818C79.9644 13.3703 79.4722 12.9361 79.1209 12.3793C78.7696 11.8224 78.5939 11.1728 78.5939 10.4304V3.81818H80.7466V10.2464C80.7466 10.6342 80.8311 10.9789 81.0002 11.2805C81.1725 11.5821 81.4145 11.8191 81.726 11.9915C82.0376 12.1638 82.4005 12.25 82.8148 12.25C83.2324 12.25 83.5953 12.1638 83.9036 11.9915C84.2151 11.8191 84.4554 11.5821 84.6245 11.2805C84.7968 10.9789 84.883 10.6342 84.883 10.2464V3.81818ZM90.8253 3.81818L92.8786 7.28835H92.9581L95.0213 3.81818H97.4524L94.3452 8.90909L97.522 14H95.0462L92.9581 10.5249H92.8786L90.7905 14H88.3246L91.5114 8.90909L88.3842 3.81818H90.8253ZM99.0036 14V6.36364H100.177V14H99.0036ZM99.6001 5.09091C99.3714 5.09091 99.1742 5.01302 99.0085 4.85724C98.8461 4.70147 98.7649 4.5142 98.7649 4.29545C98.7649 4.0767 98.8461 3.88944 99.0085 3.73366C99.1742 3.57789 99.3714 3.5 99.6001 3.5C99.8288 3.5 100.024 3.57789 100.187 3.73366C100.353 3.88944 100.435 4.0767 100.435 4.29545C100.435 4.5142 100.353 4.70147 100.187 4.85724C100.024 5.01302 99.8288 5.09091 99.6001 5.09091ZM105.647 6.36364V7.35795H101.689V6.36364H105.647ZM102.843 4.53409H104.016V11.8125C104.016 12.1439 104.064 12.3925 104.16 12.5582C104.26 12.7206 104.386 12.83 104.538 12.8864C104.694 12.9394 104.858 12.9659 105.03 12.9659C105.16 12.9659 105.266 12.9593 105.349 12.946C105.431 12.9295 105.498 12.9162 105.547 12.9062L105.786 13.9602C105.706 13.9901 105.595 14.0199 105.453 14.0497C105.31 14.0829 105.13 14.0994 104.911 14.0994C104.58 14.0994 104.255 14.0282 103.937 13.8857C103.622 13.7431 103.36 13.526 103.151 13.2344C102.946 12.9427 102.843 12.5748 102.843 12.1307V4.53409Z" fill="#242439"/>
<path d="M76.954 38.762C76.7673 38.7433 76.6507 38.72 76.604 38.692C76.5667 38.664 76.52 38.5893 76.464 38.468C76.3893 38.3933 76.3427 38.3327 76.324 38.286C76.3147 38.2393 76.3147 38.1927 76.324 38.146C76.436 38.146 76.5013 38.1273 76.52 38.09C76.52 38.062 76.534 38.0433 76.562 38.034C76.5993 38.0247 76.6367 38.0247 76.674 38.034C76.926 38.0527 77.29 37.922 77.766 37.642C78.242 37.362 78.718 37.0027 79.194 36.564C79.4647 36.2187 79.6513 35.948 79.754 35.752C79.866 35.556 79.922 35.3973 79.922 35.276C79.922 35.2013 79.908 35.1313 79.88 35.066C79.852 35.0007 79.754 34.968 79.586 34.968C79.2967 34.968 78.998 35.0707 78.69 35.276C78.2887 35.528 77.9667 35.7613 77.724 35.976C77.4813 36.1813 77.2573 36.424 77.052 36.704C76.9587 36.8253 76.8653 36.9793 76.772 37.166C76.6787 37.3433 76.618 37.46 76.59 37.516C76.59 37.5533 76.534 37.6 76.422 37.656C76.3193 37.712 76.2307 37.74 76.156 37.74C76.1093 37.7213 76.0533 37.684 75.988 37.628C75.932 37.572 75.8993 37.5067 75.89 37.432C75.8713 37.4133 75.8387 37.39 75.792 37.362C75.7547 37.334 75.7267 37.306 75.708 37.278C75.6987 37.25 75.694 37.2173 75.694 37.18C75.694 37.124 75.7173 37.0027 75.764 36.816C75.82 36.62 75.862 36.4753 75.89 36.382C75.9647 36.0273 76.058 35.6587 76.17 35.276C76.2913 34.8933 76.3753 34.6833 76.422 34.646C76.4313 34.6273 76.45 34.576 76.478 34.492C76.5153 34.408 76.534 34.3193 76.534 34.226C76.5527 34.142 76.5807 34.0487 76.618 33.946C76.6647 33.834 76.688 33.7687 76.688 33.75C76.7347 33.7127 76.884 33.344 77.136 32.644C77.136 32.6067 77.2387 32.3593 77.444 31.902C77.752 31.202 77.9387 30.754 78.004 30.558C78.088 30.4367 78.1627 30.3107 78.228 30.18C78.3307 29.9933 78.4053 29.8907 78.452 29.872C78.5267 29.8533 78.62 29.8673 78.732 29.914C78.8533 29.9607 78.9467 30.0307 79.012 30.124C79.0587 30.1893 79.082 30.236 79.082 30.264C79.082 30.3107 79.054 30.3993 78.998 30.53C78.9513 30.6513 78.8953 30.7773 78.83 30.908C78.7647 31.0387 78.718 31.1367 78.69 31.202L78.34 31.93C78.088 32.462 77.8827 32.938 77.724 33.358C77.5653 33.7687 77.3973 34.24 77.22 34.772L76.968 35.458L76.898 35.766L77.248 35.43C77.36 35.346 77.5653 35.1733 77.864 34.912C77.9293 34.856 77.9853 34.8093 78.032 34.772C78.088 34.7253 78.13 34.688 78.158 34.66C78.27 34.5853 78.4333 34.5013 78.648 34.408C78.8627 34.3147 79.012 34.2587 79.096 34.24C79.2827 34.1933 79.488 34.17 79.712 34.17C79.908 34.17 80.0713 34.2167 80.202 34.31C80.3327 34.4033 80.4587 34.5527 80.58 34.758C80.664 34.926 80.706 35.108 80.706 35.304C80.706 35.5933 80.6313 35.864 80.482 36.116C80.4353 36.1533 80.3887 36.2047 80.342 36.27C80.2953 36.326 80.272 36.3727 80.272 36.41C80.2627 36.466 80.1833 36.592 80.034 36.788C79.8847 36.984 79.7213 37.18 79.544 37.376C79.3013 37.628 78.9793 37.88 78.578 38.132C78.186 38.384 77.8593 38.5567 77.598 38.65C77.542 38.6593 77.4347 38.678 77.276 38.706C77.1267 38.7247 77.0193 38.7433 76.954 38.762ZM85.502 33.806C85.5767 33.9553 85.614 34.1187 85.614 34.296C85.614 34.576 85.5393 34.828 85.39 35.052C85.2967 35.1827 85.2127 35.3787 85.138 35.64C85.0727 35.9013 85.0073 36.2513 84.942 36.69C84.858 37.0447 84.7553 37.5907 84.634 38.328C84.4847 38.72 84.3913 39.014 84.354 39.21C84.3447 39.266 84.298 39.3827 84.214 39.56C84.1393 39.7373 84.0787 39.8773 84.032 39.98C83.668 40.736 83.2527 41.3147 82.786 41.716C82.3193 42.1173 81.8107 42.3367 81.26 42.374C81.1107 42.3927 81.022 42.402 80.994 42.402C80.91 42.402 80.8307 42.388 80.756 42.36C80.6907 42.332 80.616 42.2947 80.532 42.248C80.4947 42.2293 80.4433 42.1967 80.378 42.15C80.3127 42.1033 80.266 42.066 80.238 42.038C80.2193 42.0193 80.21 41.996 80.21 41.968C80.21 41.9213 80.238 41.8747 80.294 41.828C80.35 41.7813 80.4387 41.758 80.56 41.758C80.6253 41.7953 80.7373 41.814 80.896 41.814C81.0547 41.814 81.148 41.7953 81.176 41.758C81.1947 41.7393 81.2507 41.7067 81.344 41.66C81.4373 41.6227 81.5447 41.59 81.666 41.562C81.9553 41.422 82.212 41.24 82.436 41.016C82.6693 40.8013 82.884 40.526 83.08 40.19C83.3133 39.8353 83.4673 39.5133 83.542 39.224C83.626 39.028 83.7193 38.748 83.822 38.384C83.934 38.0107 84.0227 37.6747 84.088 37.376L83.906 37.544C83.8593 37.6 83.7427 37.684 83.556 37.796C83.3693 37.8987 83.2573 37.95 83.22 37.95C83.2107 37.95 83.1967 37.9547 83.178 37.964C83.1593 37.9733 83.15 37.992 83.15 38.02C83.15 38.0573 83.0287 38.118 82.786 38.202C82.5433 38.2767 82.3893 38.314 82.324 38.314C82.2307 38.314 82.128 38.2673 82.016 38.174C81.9133 38.0713 81.8387 37.9733 81.792 37.88C81.764 37.8147 81.7267 37.74 81.68 37.656C81.6333 37.572 81.596 37.4927 81.568 37.418C81.54 37.334 81.526 37.2407 81.526 37.138C81.526 37.0167 81.5353 36.9233 81.554 36.858C81.666 36.438 81.8527 35.8453 82.114 35.08C82.3847 34.3147 82.59 33.8247 82.73 33.61C82.8047 33.5073 82.8933 33.456 82.996 33.456C83.136 33.456 83.248 33.5307 83.332 33.68C83.416 33.792 83.458 33.8853 83.458 33.96C83.458 34.016 83.4347 34.0953 83.388 34.198C83.3413 34.3007 83.2807 34.422 83.206 34.562C83.1687 34.6647 83.122 34.7767 83.066 34.898C83.01 35.0193 82.982 35.094 82.982 35.122C82.9727 35.1593 82.9447 35.276 82.898 35.472C82.8513 35.6587 82.8093 35.752 82.772 35.752C82.7067 35.808 82.6367 36.0227 82.562 36.396C82.4873 36.7693 82.45 37.0587 82.45 37.264C82.45 37.3667 82.464 37.418 82.492 37.418C83.0427 37.418 83.64 37.0073 84.284 36.186C84.368 35.7753 84.4427 35.43 84.508 35.15C84.6293 34.674 84.7227 34.2493 84.788 33.876C84.844 33.7453 84.886 33.6707 84.914 33.652C84.942 33.624 85.0027 33.61 85.096 33.61C85.208 33.61 85.2873 33.6193 85.334 33.638C85.3807 33.6567 85.4367 33.7127 85.502 33.806Z" fill="#242439"/>
<path d="M26.4943 65C29.5966 65 31.4759 63.081 31.4759 59.8991C31.4759 56.7273 29.5966 54.8182 26.5241 54.8182H22.8849V65H26.4943ZM25.0376 63.1555V56.6626H26.4098C28.3189 56.6626 29.3281 57.6371 29.3281 59.8991C29.3281 62.1712 28.3189 63.1555 26.4048 63.1555H25.0376ZM33.0705 65H35.2232V61.6989H37.0328C39.3745 61.6989 40.7367 60.3018 40.7367 58.2685C40.7367 56.245 39.3993 54.8182 37.0875 54.8182H33.0705V65ZM35.2232 59.9737V56.5781H36.6749C37.9178 56.5781 38.5194 57.2543 38.5194 58.2685C38.5194 59.2777 37.9178 59.9737 36.6848 59.9737H35.2232ZM42.1349 65H48.6527V63.2251H44.2876V54.8182H42.1349V65ZM59.0384 59.9091C59.0384 56.5781 56.9702 54.679 54.2706 54.679C51.5561 54.679 49.5028 56.5781 49.5028 59.9091C49.5028 63.2251 51.5561 65.1392 54.2706 65.1392C56.9702 65.1392 59.0384 63.2401 59.0384 59.9091ZM56.8558 59.9091C56.8558 62.0668 55.8317 63.2351 54.2706 63.2351C52.7045 63.2351 51.6854 62.0668 51.6854 59.9091C51.6854 57.7514 52.7045 56.5831 54.2706 56.5831C55.8317 56.5831 56.8558 57.7514 56.8558 59.9091ZM59.4212 54.8182L63.1349 61.4006V65H65.2727V61.4006L68.9865 54.8182H66.5753L64.2536 59.2031H64.1541L61.8324 54.8182H59.4212ZM74.2154 65H75.4483V61.2812H77.6756C80.0471 61.2812 81.1159 59.8395 81.1159 58.0398C81.1159 56.2401 80.0471 54.8182 77.6557 54.8182H74.2154V65ZM75.4483 60.1875V55.9119H77.6159C79.2715 55.9119 79.9029 56.8168 79.9029 58.0398C79.9029 59.2628 79.2715 60.1875 77.6358 60.1875H75.4483ZM83.1021 65H84.335V61.0227H86.5623C86.6518 61.0227 86.7363 61.0227 86.8208 61.0178L88.9686 65H90.4004L88.0985 60.794C89.3961 60.3516 90.0027 59.2926 90.0027 57.9403C90.0027 56.1406 88.9288 54.8182 86.5424 54.8182H83.1021V65ZM84.335 59.9091V55.9119H86.5027C88.1532 55.9119 88.7896 56.7173 88.7896 57.9403C88.7896 59.1634 88.1532 59.9091 86.5225 59.9091H84.335ZM100.648 59.9091C100.648 56.6875 98.7589 54.679 96.1538 54.679C93.5487 54.679 91.6594 56.6875 91.6594 59.9091C91.6594 63.1307 93.5487 65.1392 96.1538 65.1392C98.7589 65.1392 100.648 63.1307 100.648 59.9091ZM99.4549 59.9091C99.4549 62.554 98.0032 63.9858 96.1538 63.9858C94.3043 63.9858 92.8526 62.554 92.8526 59.9091C92.8526 57.2642 94.3043 55.8324 96.1538 55.8324C98.0032 55.8324 99.4549 57.2642 99.4549 59.9091ZM102.721 54.8182V65H103.875V57.2642H103.974L107.156 65H108.27L111.451 57.2642H111.551V65H112.704V54.8182H111.233L107.772 63.2699H107.653L104.193 54.8182H102.721ZM123.767 59.9091C123.767 56.6875 121.878 54.679 119.273 54.679C116.668 54.679 114.779 56.6875 114.779 59.9091C114.779 63.1307 116.668 65.1392 119.273 65.1392C121.878 65.1392 123.767 63.1307 123.767 59.9091ZM122.574 59.9091C122.574 62.554 121.122 63.9858 119.273 63.9858C117.423 63.9858 115.972 62.554 115.972 59.9091C115.972 57.2642 117.423 55.8324 119.273 55.8324C121.122 55.8324 122.574 57.2642 122.574 59.9091ZM124.86 55.9119H128.061V65H129.294V55.9119H132.496V54.8182H124.86V55.9119ZM135.632 54.8182H134.399V65H135.632V54.8182ZM146.695 59.9091C146.695 56.6875 144.806 54.679 142.201 54.679C139.596 54.679 137.706 56.6875 137.706 59.9091C137.706 63.1307 139.596 65.1392 142.201 65.1392C144.806 65.1392 146.695 63.1307 146.695 59.9091ZM145.502 59.9091C145.502 62.554 144.05 63.9858 142.201 63.9858C140.351 63.9858 138.9 62.554 138.9 59.9091C138.9 57.2642 140.351 55.8324 142.201 55.8324C144.05 55.8324 145.502 57.2642 145.502 59.9091ZM156.842 54.8182H155.629V62.8324H155.529L149.961 54.8182H148.768V65H150.001V57.0057H150.1L155.649 65H156.842V54.8182Z" fill="#242439"/>
</svg>
