<svg width="40" height="40" viewBox="0 0 40 40" fill="none" xmlns="http://www.w3.org/2000/svg">
<path fill-rule="evenodd" clip-rule="evenodd" d="M10.6675 3.63739C12.2752 3.50909 13.8014 2.87692 15.0289 1.83084C17.8934 -0.610281 22.1065 -0.610281 24.971 1.83084C26.1985 2.87692 27.7247 3.50909 29.3325 3.63739C33.084 3.93677 36.0632 6.91589 36.3625 10.6675C36.491 12.2752 37.123 13.8014 38.1692 15.0289C40.6102 17.8934 40.6102 22.1065 38.1692 24.971C37.123 26.1985 36.491 27.7247 36.3625 29.3325C36.0632 33.084 33.084 36.0632 29.3325 36.3625C27.7247 36.491 26.1985 37.123 24.971 38.1692C22.1065 40.6102 17.8934 40.6102 15.0289 38.1692C13.8014 37.123 12.2752 36.491 10.6675 36.3625C6.91589 36.0632 3.93677 33.084 3.63739 29.3325C3.50909 27.7247 2.87692 26.1985 1.83084 24.971C-0.610281 22.1065 -0.610281 17.8934 1.83084 15.0289C2.87692 13.8014 3.50909 12.2752 3.63739 10.6675C3.93677 6.91589 6.91589 3.93677 10.6675 3.63739ZM29.2677 16.7678C30.244 15.7914 30.244 14.2085 29.2677 13.2322C28.2915 12.2559 26.7085 12.2559 25.7322 13.2322L17.5 21.4645L14.2678 18.2322C13.2914 17.2559 11.7085 17.2559 10.7322 18.2322C9.75592 19.2085 9.75592 20.7915 10.7322 21.7677L15.7322 26.7677C16.7085 27.744 18.2914 27.744 19.2678 26.7677L29.2677 16.7678Z" fill="#7DCC40"/>
</svg>
