<svg width="18" height="14" viewBox="0 0 18 14" fill="none" xmlns="http://www.w3.org/2000/svg">
<path d="M17.6496 3.31698C17.6496 3.6146 17.5454 3.86757 17.3371 4.07591L9.25671 12.1563L7.73886 13.6741C7.53052 13.8825 7.27755 13.9866 6.97993 13.9866C6.68231 13.9866 6.42933 13.8825 6.221 13.6741L4.70314 12.1563L0.662964 8.11608C0.454631 7.90775 0.350464 7.65477 0.350464 7.35716C0.350464 7.05954 0.454631 6.80656 0.662964 6.59823L2.18082 5.08037C2.38915 4.87204 2.64213 4.76787 2.93975 4.76787C3.23737 4.76787 3.49034 4.87204 3.69868 5.08037L6.97993 8.37278L14.3014 1.04019C14.5097 0.831858 14.7627 0.727692 15.0603 0.727692C15.3579 0.727692 15.6109 0.831858 15.8192 1.04019L17.3371 2.55805C17.5454 2.76638 17.6496 3.01936 17.6496 3.31698Z" fill="#B5E6DD"/>
</svg>
